OpenSim_Sub07_CSStiffKnee_LCS.mot
version=1
nRows=51
nColumns=11
inDegrees=no
endheader
time	Bot_Shank	2nd_Bot_Shank	2nd_Top_Shank	Top_Shank	Bot_Thigh	Med_Thigh	Top_Thigh	BNOx	BNOy	BNOZ
16.83000000	9697.66981467	8947.16330628	10422.52086001	10419.10059294	10799.59017294	11317.58415654	13503.87523437	206.64159776	-72.86458393	160.47811005
16.84000000	9695.58740227	8948.54239790	10420.08682036	10417.05408492	10804.17970403	11287.16812811	13502.39094122	208.70713118	-71.66826260	150.55185125
16.85000000	9690.15299422	8947.27099514	10413.38890367	10411.37703340	10809.36572595	11259.09258753	13505.54430144	210.54928062	-70.59671752	140.53396436
16.86000000	9681.11222069	8942.66947412	10401.50845277	10401.28267760	10814.51204517	11234.26850559	13513.86360383	212.11137536	-69.69843256	131.65741265
16.87000000	9668.38484409	8934.24565934	10383.84661472	10386.22494331	10819.05213998	11213.51735682	13527.67381505	213.34699627	-69.01369798	124.97214352
16.88000000	9652.83246954	8922.52124206	10361.53428677	10366.95957664	10822.79632783	11197.17655014	13546.20017758	214.26517280	-68.53848674	120.53821182
16.89000000	9635.63367535	8908.35912613	10336.28450632	10344.68044589	10825.68174987	11185.42058421	13568.29782632	214.89359533	-68.25385696	118.08252828
16.90000000	9617.96727870	8892.62247252	10309.81074946	10320.58174952	10827.64564277	11178.42383497	13592.82161727	215.25996834	-68.14085555	117.33175256
16.91000000	9601.01209676	8876.17444222	10283.82649227	10295.85768597	10828.62524325	11176.36067832	13618.62640644	215.39199630	-68.18052942	118.01254432
16.92000000	9585.94694673	8859.87819621	10260.04521085	10271.70245369	10828.55778798	11179.40549018	13644.56704983	215.31738367	-68.35392545	119.85156322
16.93000000	9573.95064576	8844.59689547	10240.18038128	10249.31025113	10827.38051368	11187.73264647	13669.49840345	215.06383492	-68.64209055	122.57546894
16.94000000	9566.20201105	8831.19370098	10225.94547964	10229.87527673	10825.03065704	11201.51652310	13692.27532330	214.65905452	-69.02607163	125.91092112
16.95000000	9563.87985976	8820.53177371	10219.05398202	10214.59172896	10821.44545475	11220.93149599	13711.75266539	214.13074695	-69.48691557	129.58457945
16.96000000	9568.16300907	8813.47427466	10221.21936452	10204.65380625	10816.56214350	11246.15194105	13726.78528571	213.50661666	-70.00566929	133.32310357
16.97000000	9579.86221048	8810.65582708	10233.62698290	10200.99496974	10810.47805340	11277.16300843	13736.48845908	212.81385439	-70.56367622	136.87753315
16.98000000	9597.79742939	8811.47494422	10254.60570691	10203.13840993	10804.15642439	11312.92636785	13741.38600809	212.07687223	-71.14388378	140.13077381
16.99000000	9620.11864060	8814.91413173	10281.52306795	10210.13269673	10798.85191468	11352.05924101	13742.47579616	211.31914710	-71.72977920	143.01011012
17	9644.97531399	8819.95558175	10311.74587296	10221.02604238	10795.81940214	11393.17859007	13740.75604393	210.56415525	-72.30485009	145.44286010
17.01000000	9670.51691945	8825.58148643	10342.64092892	10234.86665911	10796.31376459	11434.90137714	13737.22497205	209.83537289	-72.85258408	147.35634174
17.02000000	9694.89292688	8830.77403791	10371.57504276	10250.70275915	10801.58987989	11475.84456439	13732.88080114	209.15627626	-73.35646880	148.67787307
17.03000000	9716.25280617	8834.51542833	10395.91502147	10267.58255474	10812.90262587	11514.62511394	13728.72175185	208.55034159	-73.79999187	149.33477209
17.04000000	9732.95419927	8835.91726260	10413.34828209	10284.58162705	10831.22607907	11549.94352291	13725.64355852	208.03763145	-74.16895449	149.28982726
17.05000000	9744.89326982	8835.04758673	10423.93175080	10300.97783077	10855.45901877	11581.11766395	13723.78451775	207.61297936	-74.46625649	148.76797583
17.06000000	9752.65575141	8832.40312646	10428.78437477	10316.13968018	10883.57006990	11607.74211931	13722.94344027	207.25991107	-74.70246139	148.11165090
17.07000000	9756.83063033	8828.48262963	10429.03011069	10329.43611721	10913.52346988	11629.41277646	13722.91753548	206.96189904	-74.88816885	147.66383980
17.08000000	9758.00689287	8823.78484405	10425.79291524	10340.23608379	10943.28345612	11645.72552286	13723.50401275	206.70241568	-75.03397854	147.76752987
17.09000000	9756.77352532	8818.80851755	10420.19674514	10347.90852183	10970.81426602	11656.27624598	13724.50008149	206.46493344	-75.15049012	148.76570843
17.10000000	9753.71951396	8814.05239796	10413.36555707	10351.82237326	10994.08013701	11660.66083330	13725.70295109	206.23292475	-75.24830325	151.00136282
17.11000000	9749.43384507	8810.01523310	10406.42330773	10351.34658001	11011.04530648	11658.47517227	13726.90983093	205.98986203	-75.33801761	154.81748037
17.12000000	9744.50550496	8807.19577080	10400.49395381	10345.85008399	11019.67401185	11649.31515037	13727.91793041	205.71921773	-75.43023284	160.55704841
17.13000000	9739.47768035	8806.00089148	10396.51733011	10334.92615365	11018.43543499	11633.03824155	13728.55782125	205.40734503	-75.53382006	168.35253095
17.14000000	9734.64583834	8806.34058512	10394.43739673	10319.38138998	11008.52989082	11610.91678326	13728.84052465	205.05617848	-75.64830101	177.19771789
17.15000000	9730.22207704	8807.95761532	10393.86295634	10300.43073593	10992.07684559	11584.69927931	13728.83779132	204.67289650	-75.77005093	185.70318313
17.16000000	9726.41843173	8810.59461964	10394.40255905	10279.28944219	10971.19645817	11556.13459232	13728.62141774	204.26468142	-75.89544269	192.47921182
17.17000000	9723.44693767	8813.99423566	10395.66475498	10257.17275941	10948.00888744	11526.97158492	13728.26320038	203.83871559	-76.02084917	196.13608908
17.18000000	9721.51963014	8817.89910096	10397.25809423	10235.29593826	10924.63429230	11498.95911975	13727.83493572	203.40218138	-76.14264323	195.28410006
17.19000000	9720.84854441	8822.05185309	10398.79112691	10214.87422942	10903.19283162	11473.84605942	13727.40842023	202.96226113	-76.25719776	188.53352988
17.20000000	9721.64571577	8826.19512965	10399.87240312	10197.12288356	10885.80466428	11453.38126656	13727.05545040	202.52613718	-76.36088562	174.49466367
17.21000000	9724.07817625	8830.09198005	10400.16363498	10183.08569358	10874.34497923	11439.11270053	13726.83945992	202.10021218	-76.45064531	152.05001868
17.22000000	9727.98035578	8833.65631007	10399.71943495	10172.53927239	10868.87848432	11431.10351986	13726.76207635	201.68512613	-76.52759567	122.09407754
17.23000000	9733.03761107	8836.86963972	10398.77051461	10164.69227907	10868.65842445	11428.75139098	13726.79722557	201.27893620	-76.59472918	86.42309170
17.24000000	9738.93459565	8839.71380797	10397.54841620	10158.75069368	10872.93421687	11431.45084120	13726.91870279	200.87968740	-76.65504715	46.83756628
17.25000000	9745.35596304	8842.17065377	10396.28468195	10153.92049626	10880.95527882	11438.59639781	13727.10030319	200.48542473	-76.71155090	5.13800637
17.26000000	9751.98636677	8844.22201611	10395.21085408	10149.40766686	10891.97102754	11449.58258814	13727.31582200	200.09419317	-76.76724174	-36.87508294
17.27000000	9758.51046036	8845.84973392	10394.55847485	10144.41818553	10905.23088027	11463.80393950	13727.53905440	199.70403774	-76.82512099	-77.40119655
17.28000000	9764.61289734	8847.03564618	10394.55908647	10138.15803234	10919.98425425	11480.65497918	13727.74379560	199.31300342	-76.88818996	-114.63982936
17.29000000	9769.97833123	8847.76159185	10395.44423119	10129.83318732	10935.48056673	11499.53023451	13727.90384081	198.91913522	-76.95944997	-146.79047627
17.30000000	9774.29141557	8848.00940988	10397.44545123	10118.64963053	10950.96923495	11519.82423279	13727.99298523	198.52047812	-77.04190233	-172.05263218
17.31000000	9777.28328235	8847.76326182	10400.70564020	10103.98005963	10965.74524891	11540.91440198	13727.98933518	198.11437702	-77.13771326	-188.89783476
17.32000000	9779.02856853	8847.02447446	10404.71252277	10086.42931965	10979.44040985	11562.05179525	13727.90285887	197.69300237	-77.24287706	-197.80818757
17.33000000	9779.75587101	8845.80206814	10408.66017501	10067.15450772	10991.83747875	11582.43082416	13727.75780509	197.24620551	-77.35062177	-200.16693579
